<svg width="207" height="202" viewBox="0 0 207 202" fill="none" xmlns="http://www.w3.org/2000/svg">
<path d="M107 0C162.228 0 207 44.7715 207 100C207 155.228 162.228 200 107 200C83.9679 200 62.7556 192.212 45.8496 179.128C61.3406 190.37 80.3958 197 101 197C152.915 197 195 154.915 195 103C195 51.0852 152.915 9 101 9C49.5741 9 7.79399 50.2964 7.01172 101.536C7.00402 101.025 7 100.513 7 100C7 44.7715 51.7715 0 107 0Z" fill="#2B3A67"/>
<path d="M100 19C112.265 19 123.923 21.5989 134.455 26.2744C125.531 22.7975 115.822 20.8887 105.667 20.8887C61.8524 20.8887 26.333 56.4081 26.333 100.223C26.3332 144.037 61.8525 179.556 105.667 179.556C148.865 179.555 183.997 145.028 184.977 102.065C184.991 102.709 185 103.353 185 104C185 150.944 146.944 189 100 189C53.0558 189 15 150.944 15 104C15 57.0558 53.0558 19 100 19Z" fill="#0098C4"/>
<path d="M131.407 79.7228C106.586 60.9412 75.035 52.8419 58.2479 57.4526C57.1141 57.764 55.4425 55.6345 56.2416 54.772C72.5546 37.1646 92.1803 32.6128 106.766 33.3886C120.959 35.3691 131.027 59.8824 133.001 78.8556C133.091 79.7196 132.1 80.2469 131.407 79.7228Z" fill="#FF9500"/>
<path d="M135.047 112.712C138.902 81.8247 130.14 50.4514 117.754 38.2187C116.917 37.3925 117.926 34.8801 119.072 35.1409C142.477 40.4647 156.232 55.1851 162.853 68.2043C168.234 81.4863 152.039 102.462 136.595 113.659C135.892 114.169 134.939 113.574 135.047 112.712Z" fill="#FF9500"/>
<path d="M108.151 132.524C136.827 120.419 159.616 97.1449 164.017 80.3015C164.314 79.1639 166.994 78.781 167.341 79.9042C174.433 102.835 168.563 122.108 160.598 134.351C151.786 145.653 125.523 142.115 108.104 134.338C107.311 133.984 107.35 132.862 108.151 132.524Z" fill="#FF9500"/>
<path d="M77.7616 119.182C102.583 137.964 134.134 146.063 150.921 141.452C152.055 141.141 153.726 143.27 152.927 144.133C136.614 161.74 116.988 166.292 102.403 165.516C88.2098 163.536 78.1422 139.022 76.1673 120.049C76.0773 119.185 77.0689 118.658 77.7616 119.182Z" fill="#FF9500"/>
<path d="M74.0882 85.9693C70.2337 116.856 78.9948 148.23 91.3813 160.462C92.2179 161.288 91.2095 163.801 90.063 163.54C66.6581 158.216 52.9032 143.496 46.2824 130.477C40.9009 117.195 57.0963 96.2191 72.5401 85.0222C73.2434 84.5123 74.1958 85.1074 74.0882 85.9693Z" fill="#FF9500"/>
<path d="M100.837 66.3227C72.1613 78.428 49.3718 101.702 44.9713 118.545C44.6741 119.683 41.9941 120.066 41.6467 118.943C34.5547 96.0114 40.4255 76.7392 48.3901 64.4958C57.2019 53.1943 83.4649 56.7322 100.884 64.5084C101.677 64.8625 101.638 65.9849 100.837 66.3227Z" fill="#FF9500"/>
</svg>
